# File created by Blade
# Date/Time:  Thu Jan 22 16:21:39 2015
# Frame Rate: 120.000 fps
#------------------------------------------------------
:FULLY-SPECIFIED
:DEGREES
1732
root 3.947783 37.162938 4.697504 -2.370381 1.890637 0.382327
RightUpLeg 5.215338 -1.914606 -5.640248
RightLeg 2.110348 -0.000000 -0.000000
RightFoot -11.235422 -9.942295 17.121776
RightToeBase 12.574607 -0.000000 -0.000000
LeftUpLeg 0.834077 -0.220616 8.744564
LeftLeg 6.078384 -0.000000 -0.000000
LeftFoot -5.944296 7.852794 -21.844175
LeftToeBase 7.772146 -0.000000 -0.000000
Spine 12.730639 -6.750784 -2.522461
RightShoulder -4.241450 -12.822019 -23.594126
RightArm 11.453897 28.239048 44.962173
RightForeArm 11.521684 -0.000000 27.240271
RightHand 6.575084 -0.000000 -15.638829
RightHandThumb1 -24.326973 -0.000000 -32.862282
LeftShoulder -27.201358 35.417066 10.453933
LeftArm 51.459290 -43.872352 -64.388562
LeftForeArm 39.366542 -0.000000 16.267419
LeftHand -16.090459 -0.000000 0.787554
LeftHandThumb1 -26.253704 0.000000 33.147579
Head 2.668096 10.192640 3.437749
1733
root 4.116203 37.172318 4.743007 -2.404299 1.687600 0.654058
RightUpLeg 5.195535 -2.027614 -6.194850
RightLeg 2.282871 -0.000000 -0.000000
RightFoot -11.135361 -9.640123 17.259190
RightToeBase 12.525601 -0.000000 -0.000000
LeftUpLeg 1.066498 0.117710 8.234148
LeftLeg 5.971964 -0.000000 -0.000000
LeftFoot -5.950064 7.704973 -21.634591
LeftToeBase 7.797911 -0.000000 -0.000000
Spine 12.613065 -6.692968 -3.045399
RightShoulder -4.302331 -12.766978 -23.431382
RightArm 11.373280 28.122399 44.946648
RightForeArm 11.339226 0.000000 27.206888
RightHand 6.482142 0.000000 -15.514589
RightHandThumb1 -24.326973 -0.000000 -32.862282
LeftShoulder -27.108693 35.347401 10.748255
LeftArm 51.305392 -44.047889 -64.231719
LeftForeArm 39.195039 -0.000000 16.220537
LeftHand -16.086027 -0.000000 0.714227
LeftHandThumb1 -26.253704 0.000000 33.147579
Head 2.763162 10.068300 3.926097
1734
root 4.285177 37.177097 4.778982 -2.402388 1.513547 0.908046
RightUpLeg 5.098244 -2.149242 -6.726008
RightLeg 2.518907 -0.000000 -0.000000
RightFoot -11.078432 -9.393722 17.339306
RightToeBase 12.498749 -0.000000 -0.000000
LeftUpLeg 1.232161 0.419552 7.729170
LeftLeg 5.878032 -0.000000 -0.000000
LeftFoot -5.982202 7.616822 -21.340776
LeftToeBase 7.806458 -0.000000 -0.000000
Spine 12.478032 -6.655902 -3.531876
RightShoulder -4.379679 -12.702771 -23.299630
RightArm 11.284215 28.006922 44.931154
RightForeArm 11.311965 -0.000000 27.169983
RightHand 6.444211 0.000000 -15.283389
RightHandThumb1 -24.326973 -0.000000 -32.862282
LeftShoulder -27.008255 35.293647 11.033695
LeftArm 51.147954 -44.187046 -64.018727
LeftForeArm 38.975946 0.000000 16.149470
LeftHand -16.160704 -0.000000 0.601179
LeftHandThumb1 -26.253704 0.000000 33.147579
Head 2.832940 9.919446 4.387129
1735
root 4.451016 37.180732 4.818322 -2.417835 1.294586 1.143323
RightUpLeg 5.007334 -2.164918 -7.250290
RightLeg 2.765970 -0.000000 -0.000000
RightFoot -11.033387 -9.064202 17.596519
RightToeBase 12.530578 -0.000000 -0.000000
LeftUpLeg 1.465509 0.774604 7.256593
LeftLeg 5.711508 -0.000000 -0.000000
LeftFoot -6.022160 7.491223 -21.147026
LeftToeBase 7.843195 -0.000000 -0.000000
Spine 12.352098 -6.582765 -3.978219
RightShoulder -4.462964 -12.708321 -23.187235
RightArm 11.266972 27.899020 44.936995
RightForeArm 11.176298 -0.000000 27.114953
RightHand 6.303758 -0.000000 -15.197927
RightHandThumb1 -24.326973 -0.000000 -32.862282
LeftShoulder -26.941114 35.293144 11.232054
LeftArm 51.051826 -44.341114 -63.788184
LeftForeArm 38.774953 0.000000 16.062009
LeftHand -16.137975 -0.000000 0.638761
LeftHandThumb1 -26.253704 0.000000 33.147579
Head 2.914881 9.758869 4.783442
1736
root 4.615510 37.181876 4.849083 -2.435889 1.077219 1.342089
RightUpLeg 4.886187 -2.157341 -7.720730
RightLeg 3.041851 -0.000000 -0.000000
RightFoot -10.994115 -8.845665 17.758457
RightToeBase 12.518930 -0.000000 -0.000000
LeftUpLeg 1.692250 1.024028 6.815807
LeftLeg 5.526756 -0.000000 -0.000000
LeftFoot -6.102896 7.457278 -20.904431
LeftToeBase 7.906733 -0.000000 -0.000000
Spine 12.264177 -6.560072 -4.371923
RightShoulder -4.439872 -12.649546 -23.151393
RightArm 11.143683 27.849136 44.946457
RightForeArm 11.084546 -0.000000 27.054030
RightHand 6.260972 -0.000000 -15.033417
RightHandThumb1 -24.326973 -0.000000 -32.862282
LeftShoulder -26.970563 35.245157 11.341274
LeftArm 51.015874 -44.483822 -63.552984
LeftForeArm 38.706785 -0.000000 15.918386
LeftHand -16.214616 -0.000000 0.675185
LeftHandThumb1 -26.253704 0.000000 33.147579
Head 2.961695 9.714519 5.114209
